<svg width="134" height="511" viewBox="0 0 134 511" fill="none" xmlns="http://www.w3.org/2000/svg">
<path d="M0 235.254C12.1667 235.254 20.9115 232.022 26.2344 225.559C31.7474 219.095 34.5039 210.635 34.5039 200.18V70.1484C34.5039 57.4115 36.4049 45.7201 40.207 35.0742C44.1992 24.4284 50.8529 15.9688 60.168 9.69532C69.4831 3.23177 82.2201 0 98.3789 0H133.738V46.1953H112.066C102.371 46.1953 95.2422 48.4765 90.6797 53.0391C86.1172 57.6016 83.8359 65.0156 83.8359 75.2812V206.738C83.8359 219.475 81.0794 230.121 75.5664 238.676C70.2435 247.04 61.5938 252.744 49.6172 255.785C61.974 259.017 70.7188 264.91 75.8516 273.465C81.1745 281.829 83.8359 292.095 83.8359 304.262V435.719C83.8359 444.464 85.737 451.497 89.5391 456.82C93.5312 462.143 101.04 464.805 112.066 464.805H133.738V511H98.3789C82.2201 511 69.4831 507.768 60.168 501.305C50.8529 495.031 44.1992 486.572 40.207 475.926C36.4049 465.28 34.5039 453.589 34.5039 440.852V310.82C34.5039 300.365 31.7474 291.905 26.2344 285.441C20.9115 278.788 12.1667 275.461 0 275.461V235.254Z" fill="#064461"/>
</svg>
