<svg width="135" height="511" viewBox="0 0 135 511" fill="none" xmlns="http://www.w3.org/2000/svg">
<path d="M0.738281 511V464.805H22.4102C33.4362 464.805 40.8503 462.143 44.6523 456.82C48.6445 451.497 50.6406 444.464 50.6406 435.719V304.262C50.6406 292.095 53.207 281.829 58.3398 273.465C63.6628 264.91 72.4076 259.017 84.5742 255.785C72.5977 252.744 63.9479 247.04 58.625 238.676C53.3021 230.121 50.6406 219.475 50.6406 206.738V75.2812C50.6406 65.0156 48.3594 57.6016 43.7969 53.0391C39.2344 48.4765 32.1055 46.1953 22.4102 46.1953H0.738281V0H36.0977C52.2565 0 64.9935 3.23177 74.3086 9.69532C83.6237 15.9688 90.1823 24.4284 93.9844 35.0742C97.9766 45.7201 99.9727 57.4115 99.9727 70.1484V200.18C99.9727 210.635 102.634 219.095 107.957 225.559C113.47 232.022 122.31 235.254 134.477 235.254V275.461C122.31 275.461 113.47 278.788 107.957 285.441C102.634 291.905 99.9727 300.365 99.9727 310.82V440.852C99.9727 453.589 97.9766 465.28 93.9844 475.926C90.1823 486.572 83.6237 495.031 74.3086 501.305C64.9935 507.768 52.2565 511 36.0977 511H0.738281Z" fill="#064461"/>
</svg>
