<svg width="219" height="88" viewBox="0 0 219 88" fill="none" xmlns="http://www.w3.org/2000/svg">
<path d="M8.46979 43.3177L19.693 32.0923H19.6937L22.793 20.5239L0 43.3177L13.1598 56.4775L14.9503 49.7967L8.46979 43.3177Z" fill="#043A53"/>
<path d="M39.5316 43.3177L27.1049 55.7437L24.0049 67.3128L48 43.3177L37.1711 32.4881L42.1894 27.4691V19L35.0327 26.1574L32.9098 34.0789L32.3573 36.1428L39.5316 43.3177Z" fill="#F0B73F"/>
<path d="M26.4145 21.4231L16.271 59.2796L20.8908 64.5186L31.0357 26.6622L26.4145 21.4231Z" fill="#12141D"/>
<path d="M80.2588 48.2329H83.4009V57H61.582V54.2974L65.4053 53.3965V29.0947L61.582 28.1938V25.7329L73.9526 25.4912V28.1938L70.1294 29.0947V53.3965H79.3579L80.2588 48.2329ZM88.5864 25.7329C88.5864 24.7368 88.8721 23.9604 89.4434 23.4038C90.0146 22.8472 90.7031 22.5688 91.5088 22.5688C93.457 22.5688 94.4312 23.6235 94.4312 25.7329C94.4312 26.6997 94.1309 27.4688 93.5303 28.04C92.9297 28.5967 92.2559 28.875 91.5088 28.875C90.6152 28.875 89.9048 28.5967 89.3774 28.04C88.8501 27.4834 88.5864 26.7144 88.5864 25.7329ZM97.3535 57H85.6641V54.5171L89.4873 53.3965V36.7412L85.6641 35.8403V33.3794L93.9917 33.1597V53.3965L97.3535 54.5171V57ZM108.56 36.4336C109.409 35.5107 110.413 34.6611 111.57 33.8848C112.742 33.0938 114.009 32.6982 115.371 32.6982C116.03 32.6982 116.653 32.7495 117.239 32.8521C117.839 32.9546 118.33 33.0645 118.711 33.1816C119.092 33.2842 119.326 33.3501 119.414 33.3794L119.194 39.9053H116.25L115.591 36.5215C114.097 36.5215 112.808 36.8804 111.724 37.5981C110.64 38.3159 109.753 39.1289 109.065 40.0371V53.3965L113.569 54.5171V57H100.737V54.5171L104.561 53.3965V36.7412L100.737 35.8403V33.3794L108.164 33.1597L108.56 36.4336ZM124.578 25.7329C124.578 24.7368 124.863 23.9604 125.435 23.4038C126.006 22.8472 126.694 22.5688 127.5 22.5688C129.448 22.5688 130.422 23.6235 130.422 25.7329C130.422 26.6997 130.122 27.4688 129.521 28.04C128.921 28.5967 128.247 28.875 127.5 28.875C126.606 28.875 125.896 28.5967 125.369 28.04C124.841 27.4834 124.578 26.7144 124.578 25.7329ZM133.345 57H121.655V54.5171L125.479 53.3965V36.7412L121.655 35.8403V33.3794L129.983 33.1597V53.3965L133.345 54.5171V57Z" fill="#043A53"/>
<path d="M140.64 53.6602C140.64 53.6895 141.013 53.77 141.76 53.9019C142.507 54.019 143.394 54.0776 144.419 54.0776C147.803 54.0776 149.502 52.8911 149.517 50.5181C149.517 49.5513 149.099 48.8262 148.264 48.3428C147.444 47.8447 146.162 47.3247 144.419 46.7827C142.822 46.27 141.526 45.7793 140.53 45.3105C139.548 44.8271 138.706 44.1387 138.003 43.2451C137.3 42.3369 136.948 41.165 136.948 39.7295C136.948 37.4736 137.71 35.7378 139.233 34.522C140.771 33.3062 142.756 32.6982 145.188 32.6982C146.243 32.6982 147.334 32.8008 148.462 33.0059C149.604 33.1963 150.571 33.4014 151.362 33.6211C152.168 33.8408 152.673 33.9873 152.878 34.0605L152.747 40.125H149.824L149.099 36.6094C149.011 36.5801 148.813 36.5215 148.506 36.4336C148.213 36.3457 147.795 36.2651 147.253 36.1919C146.711 36.1187 146.111 36.082 145.452 36.082C142.786 36.082 141.453 37.0854 141.453 39.0923C141.453 40.0591 141.877 40.8062 142.727 41.3335C143.591 41.8462 144.888 42.3882 146.616 42.9595C148.169 43.5015 149.443 44.0068 150.439 44.4756C151.436 44.9297 152.278 45.5962 152.966 46.4751C153.655 47.3394 153.999 48.4307 153.999 49.749C153.999 52.2393 153.062 54.1436 151.187 55.4619C149.312 56.7803 146.953 57.4395 144.111 57.4395C142.881 57.4395 141.738 57.3662 140.684 57.2197C139.629 57.0732 138.787 56.9268 138.157 56.7803C137.527 56.6338 137.139 56.5239 136.992 56.4507V49.793H140.156L140.64 53.6602ZM169.292 32.6982C172.617 32.6982 175.21 33.7749 177.07 35.9282C178.931 38.0669 179.861 40.9673 179.861 44.6294C179.861 47.1489 179.392 49.3828 178.455 51.3311C177.532 53.2793 176.213 54.7881 174.5 55.8574C172.8 56.9121 170.837 57.4395 168.611 57.4395C165.198 57.4395 162.546 56.4141 160.657 54.3633C158.767 52.3125 157.822 49.2949 157.822 45.3105C157.822 42.791 158.306 40.5791 159.272 38.6748C160.254 36.7559 161.609 35.2837 163.337 34.2583C165.066 33.2183 167.051 32.6982 169.292 32.6982ZM169.072 36.3018C166.846 36.3018 165.198 37.0342 164.128 38.499C163.074 39.9492 162.546 42.1392 162.546 45.0688C162.546 50.9136 164.648 53.8433 168.853 53.8579C171.05 53.8579 172.646 53.1108 173.643 51.6167C174.639 50.1079 175.137 47.8521 175.137 44.8491C175.137 39.1509 173.115 36.3018 169.072 36.3018ZM187.749 30.6768C187.749 27.9521 188.467 25.8135 189.902 24.2607C191.353 22.6934 193.411 21.9097 196.077 21.9097C197.336 21.9097 198.472 22.0269 199.482 22.2612C200.493 22.4956 201.306 22.752 201.921 23.0303C202.537 23.2939 202.844 23.4404 202.844 23.4697V29.0947H199.68L198.999 25.4912C198.882 25.4619 198.567 25.418 198.054 25.3594C197.556 25.3008 196.978 25.2715 196.318 25.2715C194.824 25.2715 193.77 25.6597 193.154 26.436C192.554 27.1978 192.253 28.311 192.253 29.7759V33.3794H198.208L198.054 36.7412H192.253V53.3965L196.758 54.5171V57H183.926V54.5171L187.749 53.3965V36.7412H183.706V33.8188L187.749 33.3794V30.6768ZM216.797 36.7412H210.271V51.1992C210.271 53.0303 211.018 53.9458 212.512 53.9458C213.479 53.9458 214.651 53.5723 216.028 52.8252L217.236 55.1982C215.2 56.6924 213.098 57.4395 210.93 57.4395C209.407 57.4395 208.162 56.9414 207.195 55.9453C206.243 54.9346 205.767 53.2646 205.767 50.9355V36.7412H201.262V33.8188L205.767 33.3794V27.7104L210.271 26.8096V33.3794H216.797V36.7412Z" fill="#F0B73F"/>
</svg>
